<?xml version="1.0" encoding="utf-8"?>
<!-- Generator: Adobe Illustrator 16.0.0, SVG Export Plug-In . SVG Version: 6.00 Build 0)  -->
<!DOCTYPE svg PUBLIC "-//W3C//DTD SVG 1.1//EN" "http://www.w3.org/Graphics/SVG/1.1/DTD/svg11.dtd">
<svg version="1.1" id="layer_1" xmlns="http://www.w3.org/2000/svg" xmlns:xlink="http://www.w3.org/1999/xlink" x="0px"
	 y="0px" width="1406.09px" height="1074.68px" viewBox="0 0 1406.09 1074.68" enable-background="new 0 0 1406.09 1074.68"
	 xml:space="preserve">
<polygon fill="#3B73B9" points="674.946,25.338 482.259,343.658 674.946,457.917 "/>
<polygon fill="#3A6489" points="695.75,25.338 888.439,343.658 695.75,457.917 "/>
<polygon fill="#3B73B9" points="674.946,499.042 482.259,385.394 674.946,655.144 "/>
<polygon fill="#3A6489" points="695.75,499.042 888.439,385.394 695.75,655.144 "/>
<polygon fill="#3A6489" points="482.256,343.663 674.942,457.92 674.942,256.287 "/>
<polygon fill="#24485B" points="888.439,343.663 695.753,457.92 695.753,256.287 "/>
<polygon fill="#595758" points="162.942,830.431 162.942,848.974 54.084,848.974 54.084,926.12 156.66,926.12 156.66,944.68
	54.084,944.68 54.084,1027.511 165.038,1027.511 165.038,1046.054 33.156,1046.054 33.156,830.431 "/>
<g>
	<defs>
		<rect id="SVGID_1_" y="-0.004" width="1406.088" height="1074.684"/>
	</defs>
	<clipPath id="SVGID_2_">
		<use xlink:href="#SVGID_1_"  overflow="visible"/>
	</clipPath>
	<path clip-path="url(#SVGID_2_)" fill="#595758" d="M220.624,902.203h-27.508v-17.334h27.508V843.29h20.332v41.579h44.561v17.334
		h-44.561v98.091c0,21.844,6.584,29.621,22.734,29.621c8.066,0,15.243-0.899,22.729-2.99l2.982,16.746
		c-6.282,2.385-18.54,3.888-27.21,3.888c-28.109,0-41.567-11.371-41.567-46.367V902.203z"/>
	<path clip-path="url(#SVGID_2_)" fill="#595758" d="M451.464,937.491v108.563h-20.333V942.589c0-23.036-8.679-42.167-40.676-42.167
		c-27.219,0-46.055,22.121-46.055,40.958v104.674h-20.333V819.975H344.4v87.326c7.478-12.271,23.623-25.422,49.044-25.422
		C430.229,881.879,451.464,904,451.464,937.491"/>
	<path clip-path="url(#SVGID_2_)" fill="#595758" d="M617.402,1030.208c-12.866,8.97-31.405,18.232-58.619,18.232
		c-42.763,0-68.185-26.908-68.185-73.862v-20.03c0-45.762,25.119-72.669,65.493-72.669c41.869,0,64.893,28.101,64.893,73.258v16.745
		H510.93v2.696c0,35.583,18.548,55.923,48.151,55.923c21.529,0,37.687-7.466,49.339-15.846L617.402,1030.208z M600.652,954.841
		v-2.694c0-33.493-16.448-52.329-44.561-52.329c-28.411,0-45.161,20.634-45.161,52.329v2.694H600.652z"/>
	<path clip-path="url(#SVGID_2_)" fill="#595758" d="M744.155,905.795c-5.374-2.091-11.656-3.282-19.434-3.282
		c-26.617,0-43.368,21.827-43.368,52.035v91.507h-20.331V884.868h20.042v28.411c6.874-15.553,21.826-31.4,46.345-31.4
		c8.986,0,16.452,0.882,23.036,3.283L744.155,905.795z"/>
	<path clip-path="url(#SVGID_2_)" fill="#595758" d="M924.464,848.681l-10.767,16.436c-19.442-13.741-35.592-18.234-57.418-18.234
		c-39.774,0-61.602,30.815-61.602,75.972v27.513c0,52.916,23.918,78.942,63.692,78.942c26.907,0,45.157-9.867,59.224-22.139
		l12.253,16.452c-15.848,14.362-37.674,25.716-71.771,25.716c-55.933,0-84.629-36.481-84.629-98.972v-26.631
		c0-61.005,30.494-96.587,82.832-96.587C884.992,827.149,906.517,834.908,924.464,848.681"/>
	<path clip-path="url(#SVGID_2_)" fill="#595758" d="M1092.796,955.136v20.046c0,46.35-25.422,73.257-68.487,73.257
		c-43.066,0-68.487-26.907-68.487-73.257v-20.046c0-46.645,25.421-73.257,68.487-73.257
		C1067.374,881.879,1092.796,908.787,1092.796,955.136 M1072.161,973.99v-17.645c0-37.984-18.258-56.528-47.853-56.528
		c-29.604,0-47.854,18.544-47.854,56.528v17.645c0,37.969,18.25,56.512,47.854,56.512
		C1053.903,1030.501,1072.161,1011.958,1072.161,973.99"/>
	<path clip-path="url(#SVGID_2_)" fill="#595758" d="M1216.256,905.795c-5.375-2.091-11.656-3.282-19.425-3.282
		c-26.631,0-43.377,21.827-43.377,52.035v91.507h-20.332V884.868h20.038v28.411c6.878-15.553,21.826-31.4,46.351-31.4
		c8.968,0,16.451,0.882,23.036,3.283L1216.256,905.795z"/>
	<path clip-path="url(#SVGID_2_)" fill="#595758" d="M1369.354,1030.208c-12.866,8.97-31.4,18.232-58.619,18.232
		c-42.764,0-68.187-26.908-68.187-73.862v-20.03c0-45.762,25.12-72.669,65.49-72.669c41.864,0,64.893,28.101,64.893,73.258v16.745
		h-110.051v2.696c0,35.583,18.543,55.923,48.147,55.923c21.533,0,37.692-7.466,49.356-15.846L1369.354,1030.208z M1352.608,954.841
		v-2.694c0-33.493-16.452-52.329-44.569-52.329c-28.411,0-45.158,20.634-45.158,52.329v2.694H1352.608z"/>
</g>
</svg>
