<?xml version="1.0" encoding="utf-8"?>
<!-- Generator: Adobe Illustrator 16.0.0, SVG Export Plug-In . SVG Version: 6.00 Build 0)  -->
<!DOCTYPE svg PUBLIC "-//W3C//DTD SVG 1.1//EN" "http://www.w3.org/Graphics/SVG/1.1/DTD/svg11.dtd">
<svg version="1.1" id="layer_1" xmlns="http://www.w3.org/2000/svg" xmlns:xlink="http://www.w3.org/1999/xlink" x="0px"
	 y="0px" width="1406.09px" height="1372.82px" viewBox="0 0 1406.09 1372.82" enable-background="new 0 0 1406.09 1372.82"
	 xml:space="preserve">
<polygon fill="#595857" points="162.945,1140.883 162.945,1158.105 54.089,1158.105 54.089,1229.763 156.663,1229.763
	156.663,1246.985 54.089,1246.985 54.089,1323.922 165.042,1323.922 165.042,1341.145 33.156,1341.145 33.156,1140.883 "/>
<g>
	<defs>
		<rect id="SVGID_1_" y="-0.004" width="1406.088" height="1372.824"/>
	</defs>
	<clipPath id="SVGID_2_">
		<use xlink:href="#SVGID_1_"  overflow="visible"/>
	</clipPath>
	<path clip-path="url(#SVGID_2_)" fill="#595857" d="M220.627,1207.54h-27.512v-16.105h27.512v-38.61h20.336v38.61h44.557v16.105
		h-44.557v91.104c0,20.279,6.576,27.501,22.726,27.501c8.074,0,15.251-0.834,22.729-2.776l2.99,15.554
		c-6.282,2.222-18.543,3.61-27.215,3.61c-28.108,0-41.566-10.561-41.566-43.055V1207.54z"/>
	<path clip-path="url(#SVGID_2_)" fill="#595857" d="M451.466,1240.316v100.828H431.13v-96.102c0-21.387-8.676-39.164-40.672-39.164
		c-27.215,0-46.056,20.553-46.056,38.048v97.218H324.07v-209.979h20.332v81.103c7.479-11.388,23.628-23.609,49.045-23.609
		C430.231,1188.658,451.466,1209.21,451.466,1240.316"/>
	<path clip-path="url(#SVGID_2_)" fill="#595857" d="M617.399,1326.418c-12.862,8.338-31.401,16.941-58.615,16.941
		c-42.763,0-68.184-24.991-68.184-68.601v-18.609c0-42.494,25.118-67.492,65.493-67.492c41.869,0,64.892,26.104,64.892,68.045
		v15.553H510.936v2.504c0,33.049,18.539,51.94,48.146,51.94c21.533,0,37.683-6.942,49.343-14.718L617.399,1326.418z
		 M600.653,1256.43v-2.504c0-31.105-16.452-48.601-44.56-48.601c-28.411,0-45.157,19.165-45.157,48.601v2.504H600.653z"/>
	<path clip-path="url(#SVGID_2_)" fill="#595857" d="M744.159,1210.879c-5.383-1.942-11.661-3.059-19.437-3.059
		c-26.614,0-43.364,20.281-43.364,48.329v84.995h-20.332v-149.711h20.034v26.386c6.878-14.445,21.83-29.163,46.353-29.163
		c8.974,0,16.448,0.834,23.028,3.059L744.159,1210.879z"/>
	<path clip-path="url(#SVGID_2_)" fill="#595857" d="M924.462,1157.824l-10.767,15.28c-19.438-12.775-35.588-16.94-57.418-16.94
		c-39.773,0-61.604,28.608-61.604,70.55v25.552c0,49.155,23.923,73.319,63.696,73.319c26.916,0,45.156-9.165,59.215-20.554
		l12.262,15.28c-15.852,13.33-37.683,23.883-71.775,23.883c-55.923,0-84.632-33.883-84.632-91.929v-24.726
		c0-56.658,30.506-89.706,82.839-89.706C884.986,1137.833,906.52,1145.048,924.462,1157.824"/>
	<path clip-path="url(#SVGID_2_)" fill="#595857" d="M1092.789,1256.703v18.61c0,43.056-25.421,68.046-68.488,68.046
		c-43.064,0-68.481-24.99-68.481-68.046v-18.61c0-43.327,25.417-68.046,68.481-68.046
		C1067.368,1188.657,1092.789,1213.655,1092.789,1256.703 M1072.154,1274.206v-16.388c0-35.278-18.249-52.493-47.854-52.493
		c-29.602,0-47.847,17.215-47.847,52.493v16.388c0,35.271,18.245,52.493,47.847,52.493
		C1053.905,1326.699,1072.154,1309.477,1072.154,1274.206"/>
	<path clip-path="url(#SVGID_2_)" fill="#595857" d="M1216.257,1210.879c-5.383-1.942-11.665-3.059-19.433-3.059
		c-26.622,0-43.368,20.281-43.368,48.329v84.995h-20.332v-149.711h20.038v26.386c6.878-14.445,21.826-29.163,46.35-29.163
		c8.969,0,16.451,0.834,23.027,3.059L1216.257,1210.879z"/>
	<path clip-path="url(#SVGID_2_)" fill="#595857" d="M1369.346,1326.418c-12.857,8.338-31.4,16.941-58.619,16.941
		c-42.763,0-68.176-24.991-68.176-68.601v-18.609c0-42.494,25.119-67.492,65.488-67.492c41.865,0,64.893,26.104,64.893,68.045
		v15.553h-110.049v2.504c0,33.049,18.543,51.94,48.146,51.94c21.533,0,37.683-6.942,49.348-14.718L1369.346,1326.418z
		 M1352.6,1256.43v-2.504c0-31.105-16.451-48.601-44.561-48.601c-28.41,0-45.156,19.165-45.156,48.601v2.504H1352.6z"/>
	<polygon clip-path="url(#SVGID_2_)" fill="#3A6CAC" points="681.933,717.704 681.933,975.783 398.356,544.249 	"/>
	<polygon clip-path="url(#SVGID_2_)" fill="#395D7C" points="717.728,717.714 1001.656,544.224 717.732,975.782 	"/>
	<polygon clip-path="url(#SVGID_2_)" fill="#3A6CAC" points="398.356,502.209 681.933,-0.003 681.933,675.742 	"/>
	<polygon clip-path="url(#SVGID_2_)" fill="#3A6CAC" points="717.751,675.741 1001.656,502.235 717.732,-0.004 	"/>
	<polygon clip-path="url(#SVGID_2_)" fill="#214759" points="1001.656,502.235 717.716,372.338 717.751,675.741 	"/>
	<polygon clip-path="url(#SVGID_2_)" fill="#396184" points="398.356,502.209 681.933,372.337 681.933,675.742 	"/>
</g>
</svg>
